<svg xmlns="http://www.w3.org/2000/svg" xmlns:xlink="http://www.w3.org/1999/xlink" viewBox="0 0 1143.79 1104.96"><defs><style>.cls-1{fill:#ede2a1;}.cls-2{fill:#d1b875;}.cls-3{fill:url(#linear-gradient);}.cls-4{fill:#feb4af;}.cls-5{fill:url(#linear-gradient-2);}.cls-6{fill:url(#linear-gradient-3);}.cls-7{fill:url(#linear-gradient-4);}.cls-8{fill:#69b4d1;}.cls-9{fill:#d69c6f;}.cls-10{fill:#fbbebe;}.cls-11{fill:#6c63ff;}.cls-12{isolation:isolate;}.cls-12,.cls-17{opacity:0.1;}.cls-13{fill:#2f2e41;}.cls-14{fill:#3f3d56;}.cls-15{fill:#fbd3d3;}.cls-16{fill:#fbdada;}.cls-18{fill:#6866db;}.cls-19{fill:#de4c35;}.cls-20{fill:#f5998e;}.cls-21{fill:#a0caeb;}</style><linearGradient id="linear-gradient" x1="536.2" y1="455.36" x2="853.21" y2="1096.76" gradientTransform="translate(-33.38 36.01) rotate(-3.53)" gradientUnits="userSpaceOnUse"><stop offset="0" stop-color="#e1473d"/><stop offset="1" stop-color="#e9605a"/></linearGradient><linearGradient id="linear-gradient-2" x1="249.24" y1="-19.23" x2="400.38" y2="485.78" xlink:href="#linear-gradient"/><linearGradient id="linear-gradient-3" x1="759.8" y1="-104.45" x2="671.33" y2="175.7" gradientTransform="translate(-33.38 36.01) rotate(-3.53)" gradientUnits="userSpaceOnUse"><stop offset="0" stop-color="#ff928e"/><stop offset="1" stop-color="#feb3b1"/></linearGradient><linearGradient id="linear-gradient-4" x1="661.98" y1="664.84" x2="890.93" y2="664.84" xlink:href="#linear-gradient-3"/></defs><g id="图层_2" data-name="图层 2"><g id="Illustration"><path class="cls-1" d="M271.94,454s-38.52,44.05-56.37,69.17C199,546.58,69.91,618.59,62.87,655c-15.75,81.57-7.74,95.51-2.43,102.13,0,0-58.62-30.95-59.56-53.86C-.81,662-3.81,643.13,32.78,606.39s80.9-64.3,98.93-75.78C216.06,476.88,225.59,459.71,271.94,454Z"/><path class="cls-2" d="M901.19,475.5s-130.93-74.45-13.43-53.86c325.11,56.95,248.06,155.62,248.06,155.62s-4.78,36.38-15.1,58.32-15.92-34.87-76.07-82.92S901.19,475.5,901.19,475.5Z"/><path class="cls-3" d="M225.87,611.21S182.93,749.94,251,821.46,502.86,984.52,632.44,1055s214,55.68,256.24,20.72,66.76-173.66,64.84-223.24,7.55-456.4-162.37-479.09c0,0,3.64-20.21,25.7-12.9s52.38,26.55,52.38,26.55,81.61-70.83,32.84-136c0,0-173.63-48.39-241.56-37.27S515.66,364.66,467.06,409.73,254.26,562.5,225.87,611.21Z"/><path class="cls-4" d="M454.09,338.13s17.19,95.49,60.33,102.15,91.24-70.25,95.79-93.22S637.46,154.18,724.73,177l12,19.27s57,40.31,115.69-7.53c0,0,17.23-135-63.63-168S496.63-57.72,454.09,338.13Z"/><path class="cls-5" d="M413.23,46.18S364.84,229,318.1,286.92s-159.51,167.37-150.94,363,52.54,127.56,69,78,186.08-210.58,265.9-257.54,74.21-103.88,9-119.39-63.42-39.38-38.76-123S541.79,46,541.79,46,510.42-44,413.23,46.18Z"/><path class="cls-6" d="M580.1,470.16S390.16,563.21,447.51,823.91s36.86,82.58,13.78,4.57-2.06-141.42,21.8-148.8S469.6,858.77,522,912.86s-20.3-58.73-13.12-163.43C515.53,653,483.83,566.73,580.1,470.16Z"/><path class="cls-7" d="M703.06,413s134-44.28,177.42,120-16.14,251.63-24.26,340.72,17.23-135,15.28-212.15,10.79-143.27-40.66-163.39-96.2,142.49-139.3,180.21S675,663.77,727.18,570.94,882.13,417.34,703.06,413Z"/><path class="cls-8" d="M664.39,375.1s52.9-44.66,84.41-33.42,51.08,15.89,70.35,19.71c9.72,1.93,28.55,15,35.23,18.87,5.73,3.32,15.69,11.37,20.45,6.76,9.11-8.82,31.46-40.21,37.54-57.42,9.37-26.55,6.93-38.71,2.55-56.26-4.21-16.87-7.75-15.22-11.28-20.35-3.3-4.81-25.21-10.35-28.74-11.25C852.31,236,781.41,218.36,739.55,214c-48-5-71.36-6.75-91.41-.43s-33.89,136-46.74,151.7c-25.56,31.17-65,83.25-77.32,85.46S664.39,375.1,664.39,375.1Z"/><path class="cls-9" d="M62.21,655.09s44,53.39,106.85,24.44,119.19-59,169.51-68.43c37.17-7,56.59-13.51,82.43-12.65a180.71,180.71,0,0,1,30.94,4c45.24,9.4,65.46,21.85,65.46,21.85S387.63,644.77,272,686.38,99.86,762.91,61,756.75C42.18,753.77,43.07,691.55,62.21,655.09Z"/><path class="cls-1" d="M892.61,768.6c-66.68,14.83-247.62-27.09-332-79s-148.48-66.42-212.35-60.65C311,632.27,258,639.81,258,639.81s50.24-28.95,133.39-39.23c69-8.53,152.17-1.17,201.73,8.43C734.84,636.49,812.66,672.82,912,677.84c112.3,5.67,223.79-100.58,223.79-100.58S1163.55,708.37,892.61,768.6Z"/><path class="cls-10" d="M226.16,562.32l4.58,2.14,2.91-5.79s3.07-9.95-3.13-14.84-4.57,17.5-4.57,17.5Z"/><path class="cls-11" d="M215.7,586.24s18.07-17.25,18.22-21.42-6-3.9-8.39-5.46-10,11.41-10,11.41Z"/><path class="cls-12" d="M215.7,586.24s18.07-17.25,18.22-21.42-6-3.9-8.39-5.46-10,11.41-10,11.41Z"/><path class="cls-10" d="M165.85,580.24l2.87,8.7s6.11,14.21.38,16.46-8.51-15.78-8.51-15.78l-1.67-7.92Z"/><path class="cls-10" d="M194.08,640.44S188.31,657.16,180,662,147.2,707.2,147.2,707.2l-8.81-7.44L148.48,679c.09-9.32,14-21.58,16.8-23.19S174,638.47,174,638.47Z"/><path class="cls-10" d="M233.07,614.62l7.77,2.49c-4.74,2-12.28,20.17-12.43,24.34S218.68,659,218.68,659l-.36,3.18,6,3.9,10.47-4.28-.27-6.14s23.47-30.81,23.93-43.31-19-11.5-19-11.5Z"/><path class="cls-13" d="M147.35,703c2-.42,3,4.53,1.26,5.93s-3.07,10-3.07,10,6.83,7.86,1.31,11.09-16.32-23.43-17.16-27.39,2.91-5.78,8.64-8,3,4.52,3,4.52C140.79,701.32,145.37,703.45,147.35,703Z"/><path class="cls-13" d="M232.74,657.07c2.55-2.6,4,4.32,4.86,8.28s11.77,6.82,11.77,6.82c3.45,6.51-12,6.67-12,6.67s-15.32-4-19.91-6.13-3.44-6.5-.53-12.29,4-.84,4-.84C221.5,662.55,230.19,659.68,232.74,657.07Z"/><path class="cls-13" d="M216,592.39,243.43,600S241,613,237.09,618.94s-33.7,1.95-33.7,1.95S196.32,646.16,193,650s-16.51-4.78-22.72-9.67,7.85-26.47,7.85-26.47c-5.18-19.58,8.26-24.49,8.26-24.49Z"/><circle class="cls-10" cx="210.54" cy="512.9" r="12.14"/><path class="cls-10" d="M213.2,520.61c-4.32,4-1.6,16.88-1.6,16.88s-17.92-6.55-16.15-8,6.39-13.76,6.39-13.76Z"/><path class="cls-11" d="M212,534.31h0a30.59,30.59,0,0,1,7.11,14.07l1.66,7.85c.63,3-1.65,11.73-2.8,16.1s2.63,22.19,2.63,22.19l-11.1,1.31c-11.09,1.31-25.42-2.89-24.85-5.08s-.42-2-2.25-5.73.58-2.19,2.92-5.79.78-1.19-2.3-10.88.7-26,2-34.54,18.17-6.94,18.17-6.94C204.14,526.66,212,534.31,212,534.31Z"/><path class="cls-11" d="M199.84,550.31s-29.06,9.25-30.05,9.45-.76,20.84-1.34,23-5.93,1.26-9.89,2.09-6.16-19.37-4.3-30.1,37.86-21.44,37.86-21.44C209.36,531.76,199.84,550.31,199.84,550.31Z"/><path class="cls-13" d="M208.48,516.21l-1.73-.06-2.59-2.89c-2.59-2.89-2.26,9-2.26,9s-4.29,2.33-5.1-11,11.49-11.8,17.86-11.11,9.42-2,10.8-.34-3.18,11.75-8.13,7.83-6.93,2.22-6.93,2.22Z"/><path class="cls-14" d="M623.66,606.46a6.93,6.93,0,0,0-1.74,2.86c-.8,3.16,2.16,6,2.63,9.27.37,2.57-.86,5.06-1.48,7.58a16.14,16.14,0,0,0,6.58,16.75,4.68,4.68,0,0,0,1.91.84,4.19,4.19,0,0,0,3.1-1.12,8.56,8.56,0,0,0,2.72-4.09,17.26,17.26,0,0,0,.48-4.8l0-6.24c0-6.52,0-13.24-2-19.52-.65-2.06-1.9-6.81-4.34-7S625.16,604.79,623.66,606.46Z"/><path class="cls-10" d="M662.55,577.25a205.23,205.23,0,0,0-4.37,31.51,8.85,8.85,0,0,1-1,4.32c-1.64,2.51-5.22,2.57-8.21,2.37a4.78,4.78,0,0,1-2.07-.46c-1.16-.69-1.5-2.18-1.71-3.52q-4.87-29.49-7.74-59.28c-.08-.76,24.76-2.36,27-.5s1.06,9.42.74,12A124,124,0,0,1,662.55,577.25Z"/><path class="cls-15" d="M662.55,577.25a205.23,205.23,0,0,0-4.37,31.51,8.85,8.85,0,0,1-1,4.32c-1.64,2.51-5.22,2.57-8.21,2.37a4.78,4.78,0,0,1-2.07-.46c-1.16-.69-1.5-2.18-1.71-3.52q-4.87-29.49-7.74-59.28c-.08-.76,24.76-2.36,27-.5s1.06,9.42.74,12A124,124,0,0,1,662.55,577.25Z"/><path class="cls-16" d="M609,551.1l11.42,21.51c3.8,7.15,7.63,14.38,9.72,22.21a71.41,71.41,0,0,1,1.84,9.95,37.54,37.54,0,0,1,.27,8.67c-.23,2.15-.78,4.26-.95,6.41-.63,8.6,4.69,16.33,8.49,24.06a74.1,74.1,0,0,1,6.71,21c.49,3.12.87,6.43,2.82,8.91,3.21-1.19,6.35-2.23,9.79-2.06.3-5-3.15-9.45-4.61-14.3-2.69-8.88,1.44-18.63-.73-27.66-1.17-4.88-4.16-9.37-4.25-14.39-.15-9.16,1-18.5-1.3-27.34-2.59-10-8.8-18.85-10.68-29-1.45-7.8-.44-16.59-5.22-22.92C622.74,536.21,613.2,542.46,609,551.1Z"/><path class="cls-14" d="M650.65,688c-1,.1-2.18.14-2.85-.62a3.16,3.16,0,0,1-.61-1.52,76.37,76.37,0,0,1-1.34-10.53,6.56,6.56,0,0,1,.55-3.78,10.53,10.53,0,0,1,1.68-1.85c1.46-1.52,2.45-3.65,4.4-4.43a5,5,0,0,1,5.06,1,8.31,8.31,0,0,1,2.51,4.74c.42,2.14.32,4.51,1.58,6.32.5.7,1.17,1.25,1.73,1.91,1.88,2.21,3.73,6.67.19,7.83C659.8,688.32,654.6,687.65,650.65,688Z"/><path class="cls-14" d="M642.74,417.58c1.79-4.06.27-9-2.85-12.2s-7.47-4.75-11.87-5.49a30.17,30.17,0,0,0-17.55,1.88c-4.33,2-8,5.15-11.92,7.81a56.21,56.21,0,0,1-23.21,9c-9.26,1.36-19.72.77-26.54,7.14-12.5,11.66-1.83,35.53-13.37,48.12-3.12,3.4-7.44,5.4-11.07,8.23s-6.77,7.19-5.88,11.71a12.24,12.24,0,0,0,3.23,5.72,28.6,28.6,0,0,0,26,8.59,30.75,30.75,0,0,0,21.71-16.94c1-2.16,1.84-4.5,3.58-6.13,3.48-3.26,8.93-2.36,13.68-2.8,10.55-1,19.59-10.63,19.87-21.23.12-4.53-1-9.72,2.07-13.08,2.45-2.72,6.53-2.95,10-4,6.47-1.84,11-6.87,13.59-12.85,1.2-2.74.88-5.71,2.78-8C637,420.51,641,421.43,642.74,417.58Z"/><g class="cls-17"><path d="M566.78,421A55,55,0,0,0,578,418.1c-1,.21-2.07.4-3.12.55-7.25,1.06-15.26.94-21.67,3.91C557.68,421.83,562.37,421.62,566.78,421Z"/><path d="M564.37,487.42c-1.74,1.62-2.57,4-3.58,6.13a31.05,31.05,0,0,1-15.08,14.85c.52-.06,1-.14,1.54-.24A30.75,30.75,0,0,0,569,491.22c1-2.15,1.83-4.5,3.58-6.13l.3-.26C569.64,485,566.59,485.33,564.37,487.42Z"/><path d="M639.46,405.45c-3.11-3.16-7.5-4.75-11.87-5.5A30.27,30.27,0,0,0,610,401.83l-.37.18a34,34,0,0,1,9.81.26c4.37.75,8.77,2.34,11.87,5.5s4.64,8.14,2.85,12.2c-1.71,3.85-5.71,2.93-7.78,5.47-1.9,2.33-1.57,5.31-2.78,8.05-2.27,5.14-5.91,9.58-11,11.89,1.8-.54,3.74-.85,5.53-1.36,6.46-1.84,10.94-6.87,13.58-12.85,1.21-2.74.89-5.72,2.78-8.05,2.07-2.54,6.08-1.63,7.78-5.47C644.09,413.6,642.57,408.62,639.46,405.45Z"/><path d="M610,446.35c-3.52,1-7.6,1.23-10,3.94-3,3.37-2,8.57-2.07,13.09-.21,7.92-5.31,15.31-12.28,19l.53,0c10.55-1,19.59-10.64,19.86-21.23.13-4.54-1-9.73,2.08-13.1a7.94,7.94,0,0,1,2.47-1.79Z"/></g><path class="cls-15" d="M646.17,470.46a4.24,4.24,0,0,1-2.3,1.74c-9.35,4.12-19.19,8.32-29.38,7.46l-1.41-4.7c-.68-2.26-1.37-4.53-2.05-6.8-.33-1.08-.66-2.18-.93-3.28h0a19.66,19.66,0,0,1-.68-5.34,11.54,11.54,0,0,1,.23-1.94,10.07,10.07,0,0,1,1.28-3.3c.11-.16.22-.33.34-.48h0a7.31,7.31,0,0,1,2-1.85c1.66-1,4-1.59,4.57-3.46a5,5,0,0,0-.26-2.9c-.72-2.29-1.91-4.41-2.7-6.67-1-2.85.25-2.75,3-3.63,5-1.58,10.21-2.82,15.47-2.12a22.24,22.24,0,0,0,.63,7.68c.8,2.46,2.67,4.73,5.2,5.27.37.08.76.12,1.18.18h0a3.49,3.49,0,0,1,1.53.52,2.54,2.54,0,0,1,.76.9,6.92,6.92,0,0,1,.62,1.88q1.92,9.08,3.1,18.27v.23A4.15,4.15,0,0,1,646.17,470.46Z"/><path class="cls-16" d="M596.3,463.48c-2,3.44-2.45,7.51-2.87,11.46l-2.71,24.73c-.38,3.38-.67,7.09,1.23,9.92a24.19,24.19,0,0,1,2,2.8,15.3,15.3,0,0,1,.83,3.21c1.34,5.54,7.08,9,12.7,10,2,.37,4.38.42,5.87-1,1.66-1.56,1.49-4.31.34-6.24s-3.12-3.21-5-4.43l-6.3-4.07,1.84-26.95c.14-2,.89-4.53,2.86-4.44,1.81.09,3.34,2.61,4.89,1.67a2.44,2.44,0,0,0,.89-1.5,17.67,17.67,0,0,0-.12-6.87l-1.23-8.24c-.4-2.68.17-4.74.34-7.29.19-3-1.72-1.95-4.1-1.17C603.15,456.59,598.74,459.21,596.3,463.48Z"/><path class="cls-16" d="M673.73,499.05a4.42,4.42,0,0,1-1.78,1.83A21.48,21.48,0,0,1,656.59,504a33.55,33.55,0,0,0-3.74-.63c-2-.12-4,.4-6,.37-4.09-.06-7.82-2.38-10.82-5.17-1.81-1.64-3.52-4.4-2.06-6.37a3.76,3.76,0,0,1,3.39-1.26,13.72,13.72,0,0,1,3.61,1.1,39.29,39.29,0,0,0,12.53,2.64c2.92.12,6.59-.6,7.43-3.43a7.36,7.36,0,0,0-.46-4.2q-1.76-5.62-3.52-11.25a3,3,0,0,0-.41-.93,1.68,1.68,0,0,0-.18-.21,2.67,2.67,0,0,0-1.33-.5,12,12,0,0,1-6.07-2.64,13.09,13.09,0,0,1-2.64-3.7l-.53-1.05c-1.36-2.7-2.8-5.47-3.95-8.33a34.7,34.7,0,0,1-1.86-6c-.37-1.77-.56-2.58.37-3.43a6.52,6.52,0,0,1,.8-.58c.43-.26.92-.53,1.44-.79l.51-.25a37.08,37.08,0,0,1,4.79-1.86c4-1.18,8.4.51,11.36,3.42s4.64,6.87,5.81,10.85,1.89,8.1,3.29,12c.54,1.53,1.19,3,1.67,4.56a44.29,44.29,0,0,1,1.23,5.57l2.52,14.35A4.88,4.88,0,0,1,673.73,499.05Z"/><path class="cls-10" d="M613.92,500.64c1.62,7.34-1.27,14.84-4.09,21.83a18.32,18.32,0,0,0,6.42,2.19,124.38,124.38,0,0,0,45.07.62c.21-2.54.38-5.22-.79-7.47-.73-1.4-1.9-2.5-2.69-3.86-1.31-2.25-1.36-5-1.39-7.55l-.31-22c-7.42-2.88-15.59.75-23.5,1.68-4.09.49-8.29.25-12.29,1.22-2.08.51-8.63,2-9.49,4.19S613.42,498.3,613.92,500.64Z"/><path class="cls-16" d="M613.92,500.64c1.62,7.34-1.27,14.84-4.09,21.83a18.32,18.32,0,0,0,6.42,2.19,124.38,124.38,0,0,0,45.07.62c.21-2.54.38-5.22-.79-7.47-.73-1.4-1.9-2.5-2.69-3.86-1.31-2.25-1.36-5-1.39-7.55l-.31-22c-7.42-2.88-15.59.75-23.5,1.68-4.09.49-8.29.25-12.29,1.22-2.08.51-8.63,2-9.49,4.19S613.42,498.3,613.92,500.64Z"/><path class="cls-14" d="M634.34,520.74c-7.92-1.14-15.77-3.36-23.76-3.06a2.13,2.13,0,0,0-1.15.3,2.06,2.06,0,0,0-.65,1.32c-.65,2.89-1.21,5.81-1.68,8.74-1.57,9.74-2,20.42,3.3,28.75a8.54,8.54,0,0,1,3.64-7.22,17.21,17.21,0,0,1,7.81-2.93,17,17,0,0,1,8.43.48,11.38,11.38,0,0,1,7.18,8.83l27.52-.8a1,1,0,0,0,1.2-.76.85.85,0,0,0,0-.42,112.1,112.1,0,0,0-1.74-26.5c-.46-2.44-.71-5.85-3.53-6.6-3.37-.9-8.51.71-12,.77A88.28,88.28,0,0,1,634.34,520.74Z"/><path class="cls-18" d="M656.62,476.15l.66,12.21L629.56,491a80.91,80.91,0,0,0-15.12,2.42c-1.41.41-2.79.9-4.18,1.39-1.79-5.27-3.58-10.81-3.53-16.3h0a21,21,0,0,1,.5-4.4c.69-3.13,2.17-6.12,2.87-9.21h0a13.81,13.81,0,0,0,.35-3.68,18.08,18.08,0,0,0-.8-3.61,11.13,11.13,0,0,1-.55-3l2.16-.81h0c.08.26.15.51.21.77.13.55.24,1.11.33,1.67h0a34.68,34.68,0,0,1,.37,4.19c.1,2.81-.08,6,1.8,8.06,2.45,2.7,6.79,2,10.32,1.06l9.23-2.44c2.92-.76,6.16-1.79,7.54-4.47a8.89,8.89,0,0,0,.76-4.13l0-.28a32,32,0,0,0-1.47-9.12c-.29-.93-.62-1.84-1-2.74l.93,0a3.45,3.45,0,0,1,1.53.52,2.54,2.54,0,0,1,.77.89l.5-.24a81.81,81.81,0,0,0,11.54,23.21,10.68,10.68,0,0,1,1.56,2.65,7.22,7.22,0,0,1,.33,1.6A9.6,9.6,0,0,1,656.62,476.15Z"/><circle class="cls-16" cx="623.95" cy="424.16" r="16.89"/><path class="cls-16" d="M596.3,463.48c-2,3.44-2.45,7.51-2.87,11.46l-2.71,24.73c-.38,3.38-.67,7.09,1.23,9.92a24.19,24.19,0,0,1,2,2.8,15.3,15.3,0,0,1,.83,3.21c1.34,5.54,7.08,9,12.7,10,2,.37,4.38.42,5.87-1,1.66-1.56,1.49-4.31.34-6.24s-3.12-3.21-5-4.43l-6.3-4.07,1.84-26.95C604.31,481,598.74,459.21,596.3,463.48Z"/><path class="cls-16" d="M665.05,459.88c1.17,4,1.9,8.09,3.29,12,.55,1.54,1.2,3,1.68,4.57a45.52,45.52,0,0,1,1.22,5.56l2.53,14.35a4.79,4.79,0,0,1,0,2.68,4.42,4.42,0,0,1-1.78,1.83A21.59,21.59,0,0,1,656.59,504a31.39,31.39,0,0,0-3.74-.63c-2-.13-4,.4-6,.37-4.09-.06-7.82-2.37-10.82-5.14-1.81-1.64-3.52-4.4-2.06-6.37a3.77,3.77,0,0,1,3.4-1.26,13.76,13.76,0,0,1,3.6,1.1,39.07,39.07,0,0,0,12.53,2.63c2.92.13,6.59-.59,7.43-3.42a7.4,7.4,0,0,0-.46-4.21l-3.52-11.25C656.8,475.43,663.89,455.9,665.05,459.88Z"/><path class="cls-14" d="M613.84,430c-.92-2.64-2.18-5.94-.18-7.9a4.88,4.88,0,0,1,2.57-1.16c4.7-.88,9.77,1.61,14.21-.16a7.89,7.89,0,0,0,.62-14.4c-2-1-4.43-1.12-6.73-1.18-6.05-.18-12.35-.31-17.84,2.26s-9.88,8.6-8.35,14.46c.72,2.8,2.62,5.13,4.53,7.27,1.48,1.63,7.46,9.46,9.66,9.21C615.42,438,614.43,431.71,613.84,430Z"/><path class="cls-12" d="M631.06,406.37a7.75,7.75,0,0,0-1.07-.44A7.88,7.88,0,0,1,631.21,417a8,8,0,0,1-3.25,2.41c-4.44,1.76-9.51-.73-14.22.15a4.83,4.83,0,0,0-2.56,1.17c-2,1.95-.74,5.25.18,7.9.59,1.71,1.58,8-1.5,8.39h-.06c1,.88,1.92,1.44,2.54,1.36,3.08-.36,2.09-6.67,1.5-8.39-.92-2.65-2.18-5.95-.18-7.9a4.93,4.93,0,0,1,2.57-1.17c4.7-.87,9.77,1.62,14.21-.15a7.89,7.89,0,0,0,.62-14.4Z"/><path class="cls-19" d="M464.11,327.89c-19.57-8.19,30.87,18.67,40.83,48s15.32,50.77-14.36,69.54-57.32,40.71-57.32,40.71,14.83,2.79,51.24-15.07,80.9-50.35,72.41-75.86S475.32,332.58,464.11,327.89Z"/><path class="cls-19" d="M922.23,780.61s1.93,138.6-38.21,201.13-56.77,76.15-77.11,87.46-86,8-86,8,31.2,12.31,78,11,73.57-26.31,83.28-46.15,30.55-64,38.63-113.45S922.23,780.61,922.23,780.61Z"/><path class="cls-20" d="M243.49,733.13S222,749.8,290,805,447.58,950.45,447.58,950.45s-65.31-34.33-114.49-75.79S252.14,821.75,230,782,243.49,733.13,243.49,733.13Z"/><path class="cls-20" d="M787.91,29.2c35.9,21.43,49,31,54.55,74.46a354.6,354.6,0,0,1,.45,81.54s-4.46-15.57-7-54c-2.87-43.23-13.44-64.15-32-79s-53.07-33.46-53.07-33.46S778.15,23.38,787.91,29.2Z"/><path class="cls-20" d="M413,211.28c-23.08,33.92-59.14,95.07-108.61,144S230,467.14,230,467.14s46.83-57.39,74.36-87.17S413,211.28,413,211.28Z"/><path class="cls-21" d="M672.91,240.2s29.18-8.92,92.59,5.54,92.26,19.85,118.41,36.46c11.18,7.1,38.72,36.15,38.72,36.15s-51.72-29.15-84.72-39.15C774,259.82,705,233.74,672.91,240.2Z"/></g></g></svg>